<svg width="139" height="160" xmlns="http://www.w3.org/2000/svg">
 <!-- Created with Method Draw - http://github.com/duopixel/Method-Draw/ -->

 <g>
  <title>Layer 1</title>
  <g id="svg_11">
   <path id="svg_5" fill=" #4285f4" d="m137.224933,56.01128l-28.537324,-49.631073a12.543402,12.543402 0 0 0 -10.698784,-6.380208l-57.085499,0a12.532551,12.532551 0 0 0 -10.698784,6.380208l-28.548175,49.500864a12.456596,12.456596 0 0 0 0,12.413193l28.537324,49.913191a12.771266,12.771266 0 0 0 10.698784,6.608072l57.085499,0a12.727864,12.727864 0 0 0 10.709635,-6.57552l28.537324,-49.631073a12.727864,12.727864 0 0 0 0,-12.597655z"/>
   <path id="svg_6" opacity="0.07" d="m91.142037,42.730031l-20.974391,-7.19401l-22.200519,16.775172l13.878037,13.878037l-13.92144,1.356337l13.020832,13.020832l-13.205294,1.627604l42.610674,42.588972l7.595486,0a12.727864,12.727864 0 0 0 10.709635,-6.57552l21.137151,-36.76215l-38.650171,-38.715275z"/>
   <g transform="matrix(1.0850693616602172,0,0,1.0850693616602172,0,0) " id="svg_7">
    <path id="svg_8" fill=" #fff" d="m63.9965,27.730005l-20,11.55l0,8.93l20,11.54l20,-11.54l0,-8.93l-20,-11.55zm11.95,15.88l0,0l-11.95,6.89l-11.94,-6.89l0,0l11.94,-6.9l11.94,6.89l0,0l0.01,0.01z"/>
    <polygon id="svg_9" fill=" #fff" points="43.99649977585432,53.250005000304554 43.99649977585432,62.18001293487487 63.996484517065255,73.73000072784362 83.99648451706526,62.18001293487487 83.99648451706526,53.250005000304554 63.996484517065255,64.80000805206237 43.99649977585432,53.250005000304554 "/>
    <polygon id="svg_10" fill=" #fff" points="43.99649977585432,66.78999828643737 43.99649977585432,75.72000622100768 63.996484517065255,87.27000927276549 83.99648451706526,75.72000622100768 83.99648451706526,66.78999828643737 63.996484517065255,78.34000133819518 43.99649977585432,66.78999828643737 "/>
   </g>
  </g>
  <text xml:space="preserve" text-anchor="start" font-family="Helvetica, Arial, sans-serif" font-size="24" id="svg_14" y="153.907773" x="12.946406" fill-opacity="null" stroke-opacity="null" stroke-width="0" stroke="#000" fill="#000000">Cloud SQL</text>
 </g>
</svg>